PathFileType	4	(X/Y/Z)	F:\Vicon\SynologyDrive\Marcel_BSc\Ayumi_25_09_2024\25-09-2024\conventional_dl_80kg03.trc
DataRate	CameraRate	NumFrames	NumMarkers	Units	OrigDataRate	OrigDataStartFrame	OrigNumFrames
200.0	200.0	189	1	mm	200.0	1751	2801	
Frame#	Time	RBAR			
		X1	Y1	Z1	
1751	8.745	244.93983	685.58655	-1706.3748
1752	8.75	245.16063	684.72003	-1706.3594
1753	8.755	245.37842	683.85388	-1706.3323
1754	8.76	245.53928	682.9278	-1706.2892
1755	8.765	245.62805	682.03479	-1706.2305
1756	8.77	245.75073	681.10638	-1706.1902
1757	8.775	245.8801	680.16473	-1706.1549
1758	8.78	245.88457	679.27875	-1706.0854
1759	8.785	245.9261	678.2962	-1706.0251
1760	8.79	246.11304	677.27191	-1706.0453
1761	8.795	246.04257	676.34796	-1705.9622
1762	8.8	246.18759	675.30548	-1705.9618
1763	8.805	246.22739	674.28333	-1705.9385
1764	8.81	246.18199	673.27209	-1705.8571
1765	8.815	246.25555	672.20111	-1705.8772
1766	8.82	246.27896	671.13458	-1705.854
1767	8.825	246.24203	670.05249	-1705.8068
1768	8.83	246.23958	668.97827	-1705.7856
1769	8.835	246.2224	667.86554	-1705.7512
1770	8.84	246.1857	666.74854	-1705.7299
1771	8.845	246.16989	665.58514	-1705.6968
1772	8.85	246.15392	664.38684	-1705.6676
1773	8.855	246.13704	663.15112	-1705.6272
1774	8.86	246.11868	661.89264	-1705.59
1775	8.865	246.10995	660.60217	-1705.5804
1776	8.87	246.09048	659.2821	-1705.5394
1777	8.875	245.97964	657.97253	-1705.4686
1778	8.88	246.03973	656.58075	-1705.4821
1779	8.885	246.01318	655.18427	-1705.4637
1780	8.89	246.01472	653.75281	-1705.4371
1781	8.895	245.99541	652.27295	-1705.3853
1782	8.9	245.96341	650.76831	-1705.3558
1783	8.905	245.95798	649.23596	-1705.3473
1784	8.91	245.96045	647.67377	-1705.3246
1785	8.915	245.94101	646.08142	-1705.2814
1786	8.92	245.92593	644.50177	-1705.2693
1787	8.925	245.91359	642.90045	-1705.2313
1788	8.93	245.93419	641.258	-1705.2054
1789	8.935	245.92688	639.60822	-1705.1776
1790	8.94	245.95534	637.95459	-1705.1461
1791	8.945	245.97331	636.26599	-1705.1193
1792	8.95	245.95854	634.55646	-1705.0752
1793	8.955	245.95857	632.85522	-1705.0563
1794	8.96	245.96942	631.12042	-1705.0198
1795	8.965	245.95029	629.38013	-1705.0033
1796	8.97	245.94287	627.62885	-1704.9681
1797	8.975	245.92812	625.87756	-1704.9178
1798	8.98	245.89874	624.1192	-1704.8926
1799	8.985	245.84145	622.35577	-1704.8508
1800	8.99	245.84923	620.55389	-1704.8082
1801	8.995	245.81549	618.74359	-1704.7788
1802	9	245.80437	616.9115	-1704.7549
1803	9.005	245.76561	615.06323	-1704.6906
1804	9.01	245.72205	613.20386	-1704.6578
1805	9.015	245.68782	611.33679	-1704.6276
1806	9.02	245.63452	609.45441	-1704.5804
1807	9.025	245.58572	607.59039	-1704.5598
1808	9.03	245.54231	605.68066	-1704.504
1809	9.035	245.49023	603.75635	-1704.4857
1810	9.04	245.43199	601.82916	-1704.4254
1811	9.045	245.41435	599.86749	-1704.3964
1812	9.05	245.35185	597.89148	-1704.3472
1813	9.055	245.31686	595.91547	-1704.3016
1814	9.06	245.26143	593.90692	-1704.2681
1815	9.065	245.21104	591.90771	-1704.2273
1816	9.07	245.06895	589.92578	-1704.1246
1817	9.075	245.11119	587.86383	-1704.1432
1818	9.08	245.0574	585.86169	-1704.1001
1819	9.085	244.93199	583.84845	-1704.0231
1820	9.09	244.9192	581.81512	-1703.9968
1821	9.095	244.88506	579.77161	-1703.9585
1822	9.1	244.82501	577.73633	-1703.9172
1823	9.105	244.75995	575.69275	-1703.8591
1824	9.11	244.68713	573.63763	-1703.8444
1825	9.115	244.61554	571.59399	-1703.7885
1826	9.12	244.56291	569.52307	-1703.748
1827	9.125	244.50171	567.45392	-1703.7144
1828	9.13	244.32579	565.41284	-1703.5945
1829	9.135	244.39462	563.29694	-1703.6271
1830	9.14	244.32884	561.19055	-1703.584
1831	9.145	244.17101	559.12817	-1703.4841
1832	9.15	244.25369	556.96613	-1703.5398
1833	9.155	244.22154	554.82446	-1703.5017
1834	9.16	244.1552	552.68457	-1703.4747
1835	9.165	244.11356	550.52496	-1703.4417
1836	9.17	244.07327	548.3501	-1703.3923
1837	9.175	244.01634	546.17865	-1703.371
1838	9.18	243.99796	543.97546	-1703.3373
1839	9.185	243.97734	541.76202	-1703.3053
1840	9.19	243.92709	539.55365	-1703.2871
1841	9.195	243.89809	537.33099	-1703.2559
1842	9.2	243.87422	535.0816	-1703.2517
1843	9.205	243.83357	532.83862	-1703.2179
1844	9.21	243.84059	530.57727	-1703.2136
1845	9.215	243.91696	528.26501	-1703.1736
1846	9.22	243.95563	526.00812	-1703.1674
1847	9.225	243.91928	523.81854	-1703.1464
1848	9.23	243.76576	521.75824	-1703.1217
1849	9.235	243.60275	519.78748	-1703.1058
1850	9.24	243.41212	517.72491	-1703.0754
1851	9.245	243.23079	515.57727	-1703.036
1852	9.25	243.21466	513.31458	-1703.0183
1853	9.255	243.27449	510.96564	-1703.0157
1854	9.26	243.41917	508.71521	-1703.0055
1855	9.265	243.48021	506.56821	-1702.9741
1856	9.27	243.49518	504.49921	-1702.9551
1857	9.275	243.46141	502.49069	-1702.9182
1858	9.28	243.34747	500.49585	-1702.8999
1859	9.285	243.19708	498.49167	-1702.8848
1860	9.29	243.03758	496.43643	-1702.8837
1861	9.295	242.89825	494.35672	-1702.8556
1862	9.3	242.86853	492.23923	-1702.8326
1863	9.305	242.92943	490.08932	-1702.8269
1864	9.31	242.96602	487.97693	-1702.793
1865	9.315	242.94896	485.8793	-1702.7864
1866	9.32	242.8734	483.79898	-1702.7633
1867	9.325	242.80164	481.71786	-1702.745
1868	9.33	242.68196	479.58545	-1702.7301
1869	9.335	242.55547	477.47409	-1702.684
1870	9.34	242.42703	475.353	-1702.6815
1871	9.345	242.37418	473.21774	-1702.6526
1872	9.35	242.40172	471.08783	-1702.6422
1873	9.355	242.44052	468.98022	-1702.6143
1874	9.36	242.49193	466.89163	-1702.5884
1875	9.365	242.50128	464.81055	-1702.6052
1876	9.37	242.46689	462.73215	-1702.5627
1877	9.375	242.41568	460.64294	-1702.5481
1878	9.38	242.3192	458.55902	-1702.5431
1879	9.385	242.23842	456.45435	-1702.5193
1880	9.39	242.1554	454.36472	-1702.5204
1881	9.395	242.13116	452.24982	-1702.5065
1882	9.4	242.11775	450.16785	-1702.5081
1883	9.405	242.14278	448.12137	-1702.4938
1884	9.41	242.14241	446.06015	-1702.4895
1885	9.415	242.10568	443.99567	-1702.486
1886	9.42	242.07796	441.95743	-1702.4606
1887	9.425	242.00969	439.91028	-1702.4672
1888	9.43	241.9538	437.85956	-1702.4851
1889	9.435	241.88838	435.80405	-1702.46
1890	9.44	241.84386	433.767	-1702.4794
1891	9.445	241.85275	431.72879	-1702.4773
1892	9.45	241.84952	429.68738	-1702.4889
1893	9.455	241.84232	427.68356	-1702.4917
1894	9.46	241.81487	425.67838	-1702.4957
1895	9.465	241.77856	423.66486	-1702.5164
1896	9.47	241.73543	421.65622	-1702.5366
1897	9.475	241.64804	419.66241	-1702.5602
1898	9.48	241.60529	417.66058	-1702.5922
1899	9.485	241.63123	415.60287	-1702.6207
1900	9.49	241.51732	413.63614	-1702.6265
1901	9.495	241.55669	411.63742	-1702.6498
1902	9.5	241.64354	409.64005	-1702.6799
1903	9.505	241.91951	407.62415	-1702.756
1904	9.51	242.04062	405.63507	-1702.7607
1905	9.515	242.09212	403.67734	-1702.7761
1906	9.52	241.95938	401.76575	-1702.8098
1907	9.525	241.82167	399.81519	-1702.8334
1908	9.53	241.58296	397.86017	-1702.8555
1909	9.535	241.4153	395.91382	-1702.9153
1910	9.54	241.00526	394.09695	-1702.9514
1911	9.545	240.75685	392.25732	-1702.9867
1912	9.55	240.49664	390.46558	-1703.0234
1913	9.555	240.30887	388.71332	-1703.0601
1914	9.56	240.11543	386.97504	-1703.1096
1915	9.565	240.01994	385.20172	-1703.2159
1916	9.57	239.74449	383.40552	-1703.2096
1917	9.575	239.32245	381.72141	-1703.2924
1918	9.58	239.16133	379.89523	-1703.3506
1919	9.585	238.73596	378.17065	-1703.4124
1920	9.59	238.46893	376.41635	-1703.4677
1921	9.595	238.2375	374.64365	-1703.5333
1922	9.6	238.11281	372.83893	-1703.5934
1923	9.605	237.79309	371.23227	-1703.6716
1924	9.61	237.63142	369.49146	-1703.7489
1925	9.615	237.40834	367.73709	-1703.7797
1926	9.62	237.01747	366.13345	-1703.8733
1927	9.625	236.84586	364.37601	-1703.9253
1928	9.63	236.46317	362.67407	-1703.9446
1929	9.635	236.15128	361.08188	-1704.0588
1930	9.64	235.9745	359.34259	-1704.1298
1931	9.645	235.62569	357.80258	-1704.1836
1932	9.65	235.38629	356.19211	-1704.2717
1933	9.655	235.1053	354.56396	-1704.3064
1934	9.66	234.74274	353.12811	-1704.4086
1935	9.665	234.45702	351.52011	-1704.4617
1936	9.67	234.04779	350.02368	-1704.5388
1937	9.675	233.8	348.41019	-1704.5956
1938	9.68	233.32909	347.00131	-1704.6642
1939	9.685	233.12918	345.44339	-1704.7761
